<svg width="55" height="54" viewBox="0 0 55 54" fill="none" xmlns="http://www.w3.org/2000/svg">
<g filter="url(#filter0_d_0_394)">
<path fill-rule="evenodd" clip-rule="evenodd" d="M15.5974 6.10593C15.5974 7.80962 14.4408 8.91639 12.6998 8.91639C10.9588 8.91639 9.81476 7.80962 9.81476 6.10593V2.79803C9.81476 1.10678 10.9588 0 12.6998 0C14.4408 0 15.5974 1.10678 15.5974 2.79803V6.10593ZM7.30275 8.80447H8.8199C8.93183 8.80447 8.98157 8.74229 8.94426 8.63037L7.52659 5.06133C7.51416 5.02402 7.52659 4.98671 7.55146 4.97428C8.39709 4.58877 8.89452 3.78045 8.89452 2.71098C8.89452 1.15652 7.88723 0.0870499 6.39494 0.0870499H3.36064C3.27359 0.0870499 3.21141 0.149228 3.21141 0.236278V8.65524C3.21141 8.74229 3.27359 8.80447 3.36064 8.80447H4.81561C4.90266 8.80447 4.96484 8.74229 4.96484 8.65524V5.2603C4.96484 5.22299 4.98971 5.19812 5.02702 5.19812H5.81047C5.84777 5.19812 5.86021 5.22299 5.87265 5.24786L7.12865 8.68011C7.15352 8.76716 7.2157 8.80447 7.30275 8.80447ZM5.02702 1.6042H6.10892C6.71827 1.6042 7.14109 2.03945 7.14109 2.73585C7.14109 3.40738 6.71827 3.84263 6.10892 3.84263H5.02702C4.98971 3.84263 4.96484 3.81776 4.96484 3.78045V1.66638C4.96484 1.62908 4.98971 1.6042 5.02702 1.6042ZM12.6998 7.41167C12.0159 7.41167 11.5682 6.91425 11.5682 6.18054V2.74829C11.5682 2.00215 12.0159 1.50472 12.6998 1.50472C13.3962 1.50472 13.8439 2.00215 13.8439 2.74829V6.18054C13.8439 6.91425 13.3962 7.41167 12.6998 7.41167ZM22.3126 6.23028C22.3126 7.84692 21.181 8.90396 19.4649 8.90396C17.7487 8.90396 16.6171 7.82205 16.6171 6.1681V2.71098C16.6171 1.06947 17.7487 0 19.4649 0C21.181 0 22.3126 1.0446 22.3126 2.6488V2.71098C22.3126 2.79803 22.2505 2.87265 22.1634 2.87265L20.7084 2.93482C20.6089 2.93482 20.5592 2.89752 20.5592 2.79803V2.63637C20.5592 1.9524 20.124 1.50472 19.4649 1.50472C18.8058 1.50472 18.3705 1.9524 18.3705 2.63637V6.28003C18.3705 6.95155 18.8058 7.39924 19.4649 7.39924C20.124 7.39924 20.5592 6.95155 20.5592 6.28003V6.11836C20.5592 6.01888 20.6089 5.98157 20.7084 5.98157L22.1991 6.04531C22.267 6.05161 22.3126 6.0775 22.3126 6.1308V6.23028ZM23.5811 8.80447H25.036C25.1231 8.80447 25.1853 8.74229 25.1853 8.65524V6.1681C25.1853 6.14323 25.1977 6.11836 25.2101 6.09349L25.7698 5.28517C25.7946 5.23543 25.8319 5.23543 25.8568 5.28517L27.6227 8.69255C27.66 8.76716 27.7222 8.80447 27.7968 8.80447H29.3885C29.5005 8.80447 29.5502 8.74229 29.5005 8.63037L27.0631 3.92968C27.0506 3.89237 27.0506 3.8675 27.0631 3.84263L29.3637 0.273585C29.4258 0.1741 29.3761 0.0994855 29.2642 0.0994855H27.66C27.5854 0.0994855 27.5232 0.136793 27.4859 0.198971L25.2599 3.58148C25.235 3.63122 25.1853 3.60635 25.1853 3.55661V0.248714C25.1853 0.161664 25.1231 0.0994855 25.036 0.0994855H23.5811C23.494 0.0994855 23.4318 0.161664 23.4318 0.248714V8.65524C23.4318 8.74229 23.494 8.80447 23.5811 8.80447ZM3.32333 9.85795H6.33277C7.84992 9.85795 8.86965 10.9399 8.86965 12.5316C8.86965 14.0985 7.84992 15.1307 6.33277 15.1307H4.98971C4.9524 15.1307 4.92753 15.1556 4.92753 15.1929V18.4261C4.92753 18.5132 4.86535 18.5754 4.7783 18.5754H3.32333C3.23628 18.5754 3.1741 18.5132 3.1741 18.4261V10.0072C3.1741 9.92013 3.23628 9.85795 3.32333 9.85795ZM6.04674 13.7379H4.98971C4.9524 13.7379 4.92753 13.713 4.92753 13.6757V11.4373C4.92753 11.4 4.9524 11.3751 4.98971 11.3751H6.04674C6.68097 11.3751 7.11621 11.8228 7.11621 12.5689C7.11621 13.2902 6.68097 13.7379 6.04674 13.7379ZM15.9953 18.5754H14.4657C14.3787 18.5754 14.3289 18.5381 14.304 18.451L14.018 17.2323C14.0056 17.195 13.9932 17.1826 13.9558 17.1826H11.6304C11.5931 17.1826 11.5806 17.195 11.5682 17.2323L11.2822 18.451C11.2573 18.5381 11.1951 18.5754 11.1081 18.5754H9.60335C9.50387 18.5754 9.45412 18.5256 9.479 18.4137L11.7174 9.99474C11.7423 9.90769 11.8045 9.87039 11.8915 9.87039H13.6947C13.7817 9.87039 13.8439 9.90769 13.8688 9.99474L16.1197 18.4137C16.1445 18.5256 16.0948 18.5754 15.9953 18.5754ZM11.9164 15.7525L12.7745 12.2207C12.7869 12.171 12.8366 12.1586 12.8491 12.2207L13.6823 15.7525C13.6947 15.8022 13.6574 15.8271 13.6201 15.8271H11.9786C11.9413 15.8271 11.904 15.8022 11.9164 15.7525ZM17.214 9.85795H20.2234C21.7406 9.85795 22.7603 10.9399 22.7603 12.5316C22.7603 14.0985 21.7406 15.1307 20.2234 15.1307H18.8804C18.8431 15.1307 18.8182 15.1556 18.8182 15.1929V18.4261C18.8182 18.5132 18.756 18.5754 18.669 18.5754H17.214C17.1269 18.5754 17.0648 18.5132 17.0648 18.4261V10.0072C17.0648 9.92013 17.1269 9.85795 17.214 9.85795ZM19.9374 13.7379H18.8804C18.8431 13.7379 18.8182 13.713 18.8182 13.6757V11.4373C18.8182 11.4 18.8431 11.3751 18.8804 11.3751H19.9374C20.5716 11.3751 21.0069 11.8228 21.0069 12.5689C21.0069 13.2902 20.5716 13.7379 19.9374 13.7379ZM29.003 10.0196V11.2259C29.003 11.3129 28.9409 11.3751 28.8538 11.3751H25.521C25.4837 11.3751 25.4589 11.4 25.4589 11.4373V13.3773C25.4589 13.4146 25.4837 13.4394 25.521 13.4394H27.5978C27.6849 13.4394 27.747 13.5016 27.747 13.5887V14.7949C27.747 14.882 27.6849 14.9441 27.5978 14.9441H25.521C25.4837 14.9441 25.4589 14.969 25.4589 15.0063V17.0085C25.4589 17.0458 25.4837 17.0707 25.521 17.0707H28.8538C28.9409 17.0707 29.003 17.1328 29.003 17.2199V18.4261C29.003 18.5132 28.9409 18.5754 28.8538 18.5754H23.8547C23.7676 18.5754 23.7054 18.5132 23.7054 18.4261V10.0196C23.7054 9.93257 23.7676 9.87039 23.8547 9.87039H28.8538C28.9409 9.87039 29.003 9.93257 29.003 10.0196ZM34.1514 18.5754H35.6686C35.7805 18.5754 35.8302 18.5132 35.7929 18.4013L34.3753 14.8322C34.3628 14.7949 34.3753 14.7576 34.4001 14.7452C35.2458 14.3597 35.7432 13.5514 35.7432 12.4819C35.7432 10.9274 34.7359 9.85795 33.2436 9.85795H30.2093C30.1222 9.85795 30.0601 9.92013 30.0601 10.0072V18.4261C30.0601 18.5132 30.1222 18.5754 30.2093 18.5754H31.6643C31.7513 18.5754 31.8135 18.5132 31.8135 18.4261V15.0312C31.8135 14.9939 31.8384 14.969 31.8757 14.969H32.6591C32.6964 14.969 32.7089 14.9939 32.7213 15.0188L33.9773 18.451C34.0022 18.5381 34.0644 18.5754 34.1514 18.5754ZM32.9576 11.3751H31.8757C31.8384 11.3751 31.8135 11.4 31.8135 11.4373V13.5514C31.8135 13.5887 31.8384 13.6135 31.8757 13.6135H32.9576C33.5669 13.6135 33.9897 13.1783 33.9897 12.5068C33.9897 11.8104 33.5669 11.3751 32.9576 11.3751ZM5.8229 28.4458C7.51416 28.4458 8.63337 27.4882 8.63337 25.9835C8.63337 24.6372 7.65378 24.0894 6.55177 23.4732C6.46284 23.4235 6.3731 23.3733 6.28302 23.3223L5.94692 23.1519C5.07806 22.703 4.741 22.4389 4.741 21.917C4.741 21.3699 5.10163 21.0465 5.69855 21.0465C6.41982 21.0465 6.84263 21.5191 6.84263 22.0911V22.315C6.84263 22.402 6.90481 22.4642 6.99186 22.4642H8.42196C8.50901 22.4642 8.57119 22.402 8.57119 22.315V22.0662C8.57119 20.5615 7.41467 19.5418 5.72342 19.5418C4.11921 19.5418 3.01244 20.462 3.01244 21.9295C3.01244 23.3159 4.01155 23.9801 5.01281 24.5046L5.60994 24.8108C6.47135 25.2563 6.89237 25.5204 6.89237 26.0581C6.89237 26.5431 6.56904 26.941 5.89752 26.941C5.18868 26.941 4.72856 26.4934 4.72856 25.9213V25.6726C4.72856 25.5856 4.66638 25.5234 4.57933 25.5234H3.14923C3.06218 25.5234 3 25.5856 3 25.6726V26.0084C3 27.4633 4.11921 28.4458 5.8229 28.4458ZM15.2243 25.7721C15.2243 27.3887 14.0926 28.4458 12.3765 28.4458C10.6604 28.4458 9.52874 27.3639 9.52874 25.7099V22.2528C9.52874 20.6113 10.6604 19.5418 12.3765 19.5418C14.0926 19.5418 15.2243 20.5864 15.2243 22.1906V22.2528C15.2243 22.3398 15.1621 22.4144 15.0751 22.4144L13.6201 22.4766C13.5206 22.4766 13.4709 22.4393 13.4709 22.3398V22.1782C13.4709 21.4942 13.0356 21.0465 12.3765 21.0465C11.7174 21.0465 11.2822 21.4942 11.2822 22.1782V25.8218C11.2822 26.4934 11.7174 26.941 12.3765 26.941C13.0356 26.941 13.4709 26.4934 13.4709 25.8218V25.6602C13.4709 25.5607 13.5206 25.5234 13.6201 25.5234L15.1107 25.5871C15.1786 25.5934 15.2243 25.6193 15.2243 25.6726V25.7721ZM16.4927 28.3463H17.9477C18.0348 28.3463 18.0969 28.2841 18.0969 28.197V19.7905C18.0969 19.7035 18.0348 19.6413 17.9477 19.6413H16.4927C16.4057 19.6413 16.3435 19.7035 16.3435 19.7905V28.197C16.3435 28.2841 16.4057 28.3463 16.4927 28.3463ZM24.8246 25.9835C24.8246 27.4882 23.7054 28.4458 22.0142 28.4458C20.3105 28.4458 19.1913 27.4633 19.1913 26.0084V25.6726C19.1913 25.5856 19.2535 25.5234 19.3405 25.5234H20.7706C20.8577 25.5234 20.9198 25.5856 20.9198 25.6726V25.9213C20.9198 26.4934 21.38 26.941 22.0888 26.941C22.7603 26.941 23.0836 26.5431 23.0836 26.0581C23.0836 25.5204 22.6626 25.2563 21.8012 24.8108L21.2041 24.5046C20.2028 23.9801 19.2037 23.3159 19.2037 21.9295C19.2037 20.462 20.3105 19.5418 21.9147 19.5418C23.6059 19.5418 24.7625 20.5615 24.7625 22.0662V22.315C24.7625 22.402 24.7003 22.4642 24.6132 22.4642H23.1831C23.0961 22.4642 23.0339 22.402 23.0339 22.315V22.0911C23.0339 21.5191 22.6111 21.0465 21.8898 21.0465C21.2929 21.0465 20.9323 21.3699 20.9323 21.917C20.9323 22.4389 21.2693 22.703 22.1382 23.1519L22.4743 23.3223C22.5644 23.3733 22.6541 23.4235 22.743 23.4732C23.8451 24.0894 24.8246 24.6372 24.8246 25.9835ZM28.4807 28.4458C30.172 28.4458 31.2912 27.4882 31.2912 25.9835C31.2912 24.6372 30.3116 24.0894 29.2096 23.4732C29.1207 23.4235 29.0309 23.3733 28.9409 23.3223L28.6048 23.1519C27.7359 22.703 27.3988 22.4389 27.3988 21.917C27.3988 21.3699 27.7595 21.0465 28.3564 21.0465C29.0776 21.0465 29.5005 21.5191 29.5005 22.0911V22.315C29.5005 22.402 29.5626 22.4642 29.6497 22.4642H31.0798C31.1668 22.4642 31.229 22.402 31.229 22.315V22.0662C31.229 20.5615 30.0725 19.5418 28.3813 19.5418C26.777 19.5418 25.6703 20.462 25.6703 21.9295C25.6703 23.3159 26.6694 23.9801 27.6706 24.5046L28.2678 24.8108C29.1292 25.2563 29.5502 25.5204 29.5502 26.0581C29.5502 26.5431 29.2269 26.941 28.5553 26.941C27.8465 26.941 27.3864 26.4934 27.3864 25.9213V25.6726C27.3864 25.5856 27.3242 25.5234 27.2372 25.5234H25.8071C25.72 25.5234 25.6578 25.5856 25.6578 25.6726V26.0084C25.6578 27.4633 26.777 28.4458 28.4807 28.4458ZM37.9692 25.6477C37.9692 27.3514 36.8127 28.4582 35.0717 28.4582C33.3307 28.4582 32.1866 27.3514 32.1866 25.6477V22.3398C32.1866 20.6486 33.3307 19.5418 35.0717 19.5418C36.8127 19.5418 37.9692 20.6486 37.9692 22.3398V25.6477ZM35.0717 26.9535C34.3877 26.9535 33.94 26.456 33.94 25.7223V22.2901C33.94 21.5439 34.3877 21.0465 35.0717 21.0465C35.7681 21.0465 36.2157 21.5439 36.2157 22.2901V25.7223C36.2157 26.456 35.7681 26.9535 35.0717 26.9535ZM44.7466 28.3463H43.2295C43.1424 28.3463 43.0802 28.309 43.0554 28.2219L41.7994 24.7897C41.7869 24.7648 41.7745 24.7399 41.7372 24.7399H40.9537C40.9164 24.7399 40.8916 24.7648 40.8916 24.8021V28.197C40.8916 28.2841 40.8294 28.3463 40.7423 28.3463H39.2874C39.2003 28.3463 39.1381 28.2841 39.1381 28.197V19.7781C39.1381 19.691 39.2003 19.6289 39.2874 19.6289H42.3217C43.8139 19.6289 44.8212 20.6983 44.8212 22.2528C44.8212 23.3223 44.3238 24.1306 43.4782 24.5161C43.4533 24.5285 43.4409 24.5658 43.4533 24.6031L44.871 28.1722C44.9083 28.2841 44.8585 28.3463 44.7466 28.3463ZM40.9537 21.146H42.0356C42.645 21.146 43.0678 21.5813 43.0678 22.2777C43.0678 22.9492 42.645 23.3844 42.0356 23.3844H40.9537C40.9164 23.3844 40.8916 23.3596 40.8916 23.3223V21.2082C40.8916 21.1709 40.9164 21.146 40.9537 21.146ZM51.3127 25.9835C51.3127 27.4882 50.1935 28.4458 48.5022 28.4458C46.7985 28.4458 45.6793 27.4633 45.6793 26.0084V25.6726C45.6793 25.5856 45.7415 25.5234 45.8285 25.5234H47.2586C47.3457 25.5234 47.4079 25.5856 47.4079 25.6726V25.9213C47.4079 26.4934 47.868 26.941 48.5768 26.941C49.2483 26.941 49.5717 26.5431 49.5717 26.0581C49.5717 25.5204 49.1506 25.2563 48.2892 24.8108L47.6921 24.5046C46.6908 23.9801 45.6917 23.3159 45.6917 21.9295C45.6917 20.462 46.7985 19.5418 48.4027 19.5418C50.094 19.5418 51.2505 20.5615 51.2505 22.0662V22.315C51.2505 22.402 51.1883 22.4642 51.1013 22.4642H49.6712C49.5841 22.4642 49.5219 22.402 49.5219 22.315V22.0911C49.5219 21.5191 49.0991 21.0465 48.3778 21.0465C47.7809 21.0465 47.4203 21.3699 47.4203 21.917C47.4203 22.4389 47.7574 22.703 48.6262 23.1519L48.9623 23.3223C49.0524 23.3733 49.1421 23.4235 49.2311 23.4732C50.3331 24.0894 51.3127 24.6372 51.3127 25.9835ZM3.36064 38.1172H8.35978C8.44683 38.1172 8.50901 38.055 8.50901 37.9679V36.7617C8.50901 36.6746 8.44683 36.6125 8.35978 36.6125H5.02702C4.98971 36.6125 4.96484 36.5876 4.96484 36.5503V29.5614C4.96484 29.4744 4.90266 29.4122 4.81561 29.4122H3.36064C3.27359 29.4122 3.21141 29.4744 3.21141 29.5614V37.9679C3.21141 38.055 3.27359 38.1172 3.36064 38.1172ZM11.021 38.1172H9.56605C9.479 38.1172 9.41682 38.055 9.41682 37.9679V29.5614C9.41682 29.4744 9.479 29.4122 9.56605 29.4122H11.021C11.1081 29.4122 11.1702 29.4744 11.1702 29.5614V37.9679C11.1702 38.055 11.1081 38.1172 11.021 38.1172ZM12.2895 38.1172H17.3135C17.4005 38.1172 17.4627 38.055 17.4627 37.9679V36.7617C17.4627 36.6746 17.4005 36.6125 17.3135 36.6125H14.1175C14.0678 36.6125 14.0553 36.5876 14.0802 36.5378L17.413 31.0537C17.4503 30.9915 17.4627 30.9293 17.4627 30.8672V29.5614C17.4627 29.4744 17.4005 29.4122 17.3135 29.4122H12.2895C12.2024 29.4122 12.1402 29.4744 12.1402 29.5614V30.7677C12.1402 30.8547 12.2024 30.9169 12.2895 30.9169H15.4854C15.5352 30.9169 15.5476 30.9418 15.5227 30.9915L12.19 36.4757C12.1527 36.5378 12.1402 36.6 12.1402 36.6622V37.9679C12.1402 38.055 12.2024 38.1172 12.2895 38.1172ZM24.6878 38.1172H23.1583C23.0712 38.1172 23.0215 38.0799 22.9966 37.9928L22.7106 36.7741C22.6981 36.7368 22.6857 36.7244 22.6484 36.7244H20.3229C20.2856 36.7244 20.2732 36.7368 20.2607 36.7741L19.9747 37.9928C19.9499 38.0799 19.8877 38.1172 19.8006 38.1172H18.2959C18.1964 38.1172 18.1467 38.0674 18.1715 37.9555L20.41 29.5365C20.4348 29.4495 20.497 29.4122 20.5841 29.4122H22.3872C22.4743 29.4122 22.5365 29.4495 22.5613 29.5365L24.8122 37.9555C24.8371 38.0674 24.7873 38.1172 24.6878 38.1172ZM20.6089 35.2943L21.467 31.7625C21.4794 31.7128 21.5292 31.7004 21.5416 31.7625L22.3748 35.2943C22.3872 35.344 22.3499 35.3689 22.3126 35.3689H20.6711C20.6338 35.3689 20.5965 35.344 20.6089 35.2943ZM31.4031 38.1172H29.886C29.7989 38.1172 29.7367 38.0799 29.7119 37.9928L28.4559 34.5606C28.4434 34.5357 28.431 34.5108 28.3937 34.5108H27.6102C27.5729 34.5108 27.5481 34.5357 27.5481 34.573V37.9679C27.5481 38.055 27.4859 38.1172 27.3988 38.1172H25.9439C25.8568 38.1172 25.7946 38.055 25.7946 37.9679V29.549C25.7946 29.4619 25.8568 29.3998 25.9439 29.3998H28.9782C30.4704 29.3998 31.4777 30.4692 31.4777 32.0237C31.4777 33.0932 30.9803 33.9015 30.1347 34.287C30.1098 34.2994 30.0974 34.3367 30.1098 34.374L31.5275 37.9431C31.5648 38.055 31.515 38.1172 31.4031 38.1172ZM27.6102 30.9169H28.6921C29.3015 30.9169 29.7243 31.3522 29.7243 32.0486C29.7243 32.7201 29.3015 33.1553 28.6921 33.1553H27.6102C27.5729 33.1553 27.5481 33.1305 27.5481 33.0932V30.9791C27.5481 30.9418 27.5729 30.9169 27.6102 30.9169ZM35.3701 38.1172H32.6964C32.6094 38.1172 32.5472 38.055 32.5472 37.9679V29.5614C32.5472 29.4744 32.6094 29.4122 32.6964 29.4122H35.3701C37.0614 29.4122 38.1806 30.407 38.1806 31.9366V35.5927C38.1806 37.1223 37.0614 38.1172 35.3701 38.1172ZM34.3006 36.5503V30.9791C34.3006 30.9418 34.3255 30.9169 34.3628 30.9169H35.3825C36.0168 30.9169 36.4271 31.3895 36.4271 32.1356V35.3938C36.4023 36.1275 35.9919 36.6 35.3825 36.6L34.3628 36.6125C34.3255 36.6125 34.3006 36.5876 34.3006 36.5503ZM8.63337 45.5253C8.63337 47.03 7.51416 47.9876 5.8229 47.9876C4.11921 47.9876 3 47.0051 3 45.5502V45.2144C3 45.1274 3.06218 45.0652 3.14923 45.0652H4.57933C4.66638 45.0652 4.72856 45.1274 4.72856 45.2144V45.4631C4.72856 46.0352 5.18868 46.4828 5.89752 46.4828C6.56904 46.4828 6.89237 46.0849 6.89237 45.5999C6.89237 45.0622 6.47135 44.7981 5.60994 44.3526L5.01281 44.0464C4.01155 43.5219 3.01244 42.8577 3.01244 41.4713C3.01244 40.0038 4.11921 39.0836 5.72342 39.0836C7.41467 39.0836 8.57119 40.1033 8.57119 41.6081V41.8568C8.57119 41.9438 8.50901 42.006 8.42196 42.006H6.99186C6.90481 42.006 6.84263 41.9438 6.84263 41.8568V41.6329C6.84263 41.0609 6.41982 40.5883 5.69855 40.5883C5.10163 40.5883 4.741 40.9117 4.741 41.4588C4.741 41.9807 5.07806 42.2448 5.94692 42.6937L6.28302 42.8641C6.37188 42.9144 6.46041 42.9639 6.54816 43.013L6.54836 43.0131L6.55052 43.0143L6.55176 43.015C7.65377 43.6312 8.63337 44.179 8.63337 45.5253ZM12.7993 39.1707H9.78989C9.70284 39.1707 9.64066 39.2328 9.64066 39.3199V47.7388C9.64066 47.8259 9.70284 47.8881 9.78989 47.8881H11.2449C11.3319 47.8881 11.3941 47.8259 11.3941 47.7388V44.5056C11.3941 44.4683 11.419 44.4434 11.4563 44.4434H12.7993C14.3165 44.4434 15.3362 43.4112 15.3362 41.8443C15.3362 40.2526 14.3165 39.1707 12.7993 39.1707ZM11.4563 43.0506H12.5133C13.1475 43.0506 13.5828 42.6029 13.5828 41.8816C13.5828 41.1355 13.1475 40.6878 12.5133 40.6878H11.4563C11.419 40.6878 11.3941 40.7127 11.3941 40.75V42.9884C11.3941 43.0257 11.419 43.0506 11.4563 43.0506ZM19.0172 48C20.7582 48 21.9147 46.8932 21.9147 45.1895V41.8816C21.9147 40.1904 20.7582 39.0836 19.0172 39.0836C17.2762 39.0836 16.1321 40.1904 16.1321 41.8816V45.1895C16.1321 46.8932 17.2762 48 19.0172 48ZM17.8855 45.2641C17.8855 45.9979 18.3332 46.4953 19.0172 46.4953C19.7136 46.4953 20.1613 45.9979 20.1613 45.2641V41.8319C20.1613 41.0858 19.7136 40.5883 19.0172 40.5883C18.3332 40.5883 17.8855 41.0858 17.8855 41.8319V45.2641ZM25.7822 47.9876C27.4983 47.9876 28.63 46.9305 28.63 45.3139V45.2144C28.63 45.1611 28.5843 45.1352 28.5164 45.1289L27.0258 45.0652C26.9263 45.0652 26.8765 45.1025 26.8765 45.202V45.3636C26.8765 46.0352 26.4413 46.4828 25.7822 46.4828C25.1231 46.4828 24.6878 46.0352 24.6878 45.3636V41.72C24.6878 41.036 25.1231 40.5883 25.7822 40.5883C26.4413 40.5883 26.8765 41.036 26.8765 41.72V41.8816C26.8765 41.9811 26.9263 42.0184 27.0258 42.0184L28.4807 41.9563C28.5678 41.9563 28.63 41.8816 28.63 41.7946V41.7324C28.63 40.1282 27.4983 39.0836 25.7822 39.0836C24.0661 39.0836 22.9344 40.1531 22.9344 41.7946V45.2517C22.9344 46.9057 24.0661 47.9876 25.7822 47.9876ZM29.7492 47.7389C29.7492 47.8259 29.8114 47.8881 29.8984 47.8881H31.3534C31.4404 47.8881 31.5026 47.8259 31.5026 47.7389V45.2517C31.5026 45.2268 31.515 45.202 31.5275 45.1771L32.0871 44.3688C32.112 44.319 32.1493 44.319 32.1741 44.3688L33.94 47.7762C33.9773 47.8508 34.0395 47.8881 34.1141 47.8881H35.7059C35.8178 47.8881 35.8675 47.8259 35.8178 47.714L33.3804 43.0133C33.368 42.976 33.368 42.9511 33.3804 42.9262L35.681 39.3572C35.7432 39.2577 35.6934 39.1831 35.5815 39.1831H33.9773C33.9027 39.1831 33.8405 39.2204 33.8032 39.2826L31.5772 42.6651C31.5524 42.7148 31.5026 42.69 31.5026 42.6402V39.3323C31.5026 39.2453 31.4404 39.1831 31.3534 39.1831H29.8984C29.8114 39.1831 29.7492 39.2453 29.7492 39.3323V47.7389Z" fill="white"/>
</g>
<defs>
<filter id="filter0_d_0_394" x="0" y="0" width="54.3125" height="54" filterUnits="userSpaceOnUse" color-interpolation-filters="sRGB">
<feFlood flood-opacity="0" result="BackgroundImageFix"/>
<feColorMatrix in="SourceAlpha" type="matrix" values="0 0 0 0 0 0 0 0 0 0 0 0 0 0 0 0 0 0 127 0" result="hardAlpha"/>
<feOffset dy="3"/>
<feGaussianBlur stdDeviation="1.5"/>
<feColorMatrix type="matrix" values="0 0 0 0 0 0 0 0 0 0 0 0 0 0 0 0 0 0 0.196706 0"/>
<feBlend mode="normal" in2="BackgroundImageFix" result="effect1_dropShadow_0_394"/>
<feBlend mode="normal" in="SourceGraphic" in2="effect1_dropShadow_0_394" result="shape"/>
</filter>
</defs>
</svg>
